<svg width="52" height="55" viewBox="0 0 52 55" fill="none" xmlns="http://www.w3.org/2000/svg">
<path d="M2 2.30127H7.00294L18.2328 24.9824H40.4269L50.377 8.27721" stroke="#4C4B4D" stroke-width="3" stroke-linecap="round" stroke-linejoin="round"/>
<path d="M44.2162 36.8977H11.2319L17.5518 25.5571" stroke="#4C4B4D" stroke-width="3" stroke-linecap="round" stroke-linejoin="round"/>
<path d="M13.701 54.3948C16.7371 54.3948 19.1984 51.8561 19.1984 48.7245C19.1984 45.5929 16.7371 43.0542 13.701 43.0542C10.6649 43.0542 8.20361 45.5929 8.20361 48.7245C8.20361 51.8561 10.6649 54.3948 13.701 54.3948Z" fill="#4C4B4D"/>
<path d="M13.7008 52.1266C15.5224 52.1266 16.9992 50.6034 16.9992 48.7244C16.9992 46.8455 15.5224 45.3223 13.7008 45.3223C11.8791 45.3223 10.4023 46.8455 10.4023 48.7244C10.4023 50.6034 11.8791 52.1266 13.7008 52.1266Z" fill="#4C4B4D" stroke="#4C4B4D" stroke-width="2"/>
<path d="M41.1063 54.3948C44.1424 54.3948 46.6037 51.8561 46.6037 48.7245C46.6037 45.5929 44.1424 43.0542 41.1063 43.0542C38.0701 43.0542 35.6089 45.5929 35.6089 48.7245C35.6089 51.8561 38.0701 54.3948 41.1063 54.3948Z" fill="#4C4B4D"/>
<path d="M41.1065 52.1266C42.9282 52.1266 44.405 50.6034 44.405 48.7244C44.405 46.8455 42.9282 45.3223 41.1065 45.3223C39.2849 45.3223 37.8081 46.8455 37.8081 48.7244C37.8081 50.6034 39.2849 52.1266 41.1065 52.1266Z" fill="#4C4B4D" stroke="#4C4B4D" stroke-width="2"/>
</svg>
