<svg width="62" height="53" viewBox="0 0 62 53" fill="none" xmlns="http://www.w3.org/2000/svg">
<path d="M19.8198 23.1054C17.9747 23.1054 16.479 24.6012 16.479 26.4463C16.479 28.2914 17.9747 29.7871 19.8198 29.7871C21.6649 29.7871 23.1606 28.2914 23.1606 26.4463C23.1606 24.6012 21.6649 23.1054 19.8198 23.1054Z" fill="#4C4B4D"/>
<path d="M30.956 29.7871C30.2953 29.7871 29.6494 29.5912 29.1 29.2241C28.5506 28.857 28.1224 28.3352 27.8695 27.7247C27.6166 27.1143 27.5505 26.4426 27.6794 25.7945C27.8083 25.1464 28.1265 24.5512 28.5937 24.0839C29.0609 23.6167 29.6562 23.2985 30.3043 23.1696C30.9523 23.0407 31.6241 23.1069 32.2345 23.3597C32.845 23.6126 33.3667 24.0408 33.7338 24.5902C34.1009 25.1396 34.2969 25.7855 34.2969 26.4463C34.2969 27.3323 33.9449 28.1821 33.3184 28.8086C32.6918 29.4351 31.8421 29.7871 30.956 29.7871V29.7871Z" fill="#4C4B4D"/>
<path d="M42.0942 23.1054C40.2491 23.1054 38.7534 24.6012 38.7534 26.4463C38.7534 28.2914 40.2491 29.7871 42.0942 29.7871C43.9393 29.7871 45.4351 28.2914 45.4351 26.4463C45.4351 24.6012 43.9393 23.1054 42.0942 23.1054Z" fill="#4C4B4D"/>
<path d="M25.5973 2H36.3214C42.6982 2.12172 48.7656 4.77099 53.1894 9.36527C57.6133 13.9596 60.0315 20.1227 59.9122 26.4995C59.8918 30.0072 59.1409 33.4721 57.7073 36.6735C56.7434 39.0373 56.4395 41.6184 56.8278 44.1414C57.2161 46.6643 58.2822 49.0346 59.9122 50.9991C50.4398 50.9991 47.9988 47.881 46.9386 48.4689C43.6574 50.1639 40.0121 51.0324 36.3192 50.9991H25.5973C19.2201 50.8779 13.1521 48.2289 8.72777 43.6346C4.30341 39.0402 1.88494 32.8767 2.00421 26.4995C1.88494 20.1223 4.30341 13.9588 8.72777 9.3645C13.1521 4.77015 19.2201 2.12114 25.5973 2V2Z" stroke="#4C4B4D" stroke-width="3" stroke-linejoin="round"/>
</svg>
